<svg width="160" height="160" viewBox="0 0 160 160" fill="none" xmlns="http://www.w3.org/2000/svg">
<path d="M35.4591 96.6903L29.8898 117.482L9.534 117.912C3.4506 106.629 0 93.719 0 80.0003C0 66.7343 3.22623 54.2243 8.94494 43.209H8.94931L27.0717 46.5315L35.0104 64.5452C33.3488 69.3893 32.4432 74.5893 32.4432 80.0003C32.4438 85.8728 33.5076 91.4993 35.4591 96.6903Z" fill="#FBBB00"/>
<path d="M158.602 65.0557C159.521 69.895 160 74.8929 160 80.0007C160 85.7282 159.398 91.3151 158.251 96.7041C154.356 115.043 144.18 131.056 130.084 142.388L130.08 142.383L107.253 141.219L104.023 121.051C113.377 115.566 120.687 106.981 124.537 96.7041H81.7593V65.0557H125.161H158.602Z" fill="#518EF8"/>
<path d="M130.079 142.383L130.084 142.387C116.374 153.407 98.9586 160 80.0006 160C49.5349 160 23.0472 142.972 9.53516 117.912L35.4603 96.6904C42.2162 114.721 59.6095 127.556 80.0006 127.556C88.7652 127.556 96.9764 125.187 104.022 121.051L130.079 142.383Z" fill="#28B446"/>
<path d="M131.063 18.4175L105.147 39.635C97.8546 35.0769 89.2347 32.4438 79.9998 32.4438C59.1471 32.4438 41.4285 45.8678 35.011 64.545L8.94963 43.2088H8.94525C22.2595 17.5385 49.0812 0 79.9998 0C99.4106 0 117.208 6.91438 131.063 18.4175Z" fill="#F14336"/>
</svg>
